<svg width="36" height="42" viewBox="0 0 36 42" fill="none" xmlns="http://www.w3.org/2000/svg">
<path d="M18 9.86796C12.158 9.86796 7.40893 14.6171 7.40089 20.459C7.40089 22.4599 7.96339 24.4126 9.02411 26.0921L9.27321 26.4939L8.20446 30.3992L12.2143 29.3465L12.6 29.5796C14.2232 30.5439 16.0875 31.0581 17.992 31.0581H18C23.8339 31.0581 28.7116 26.309 28.7116 20.4671C28.7116 17.6385 27.4902 14.9787 25.4893 12.9778C23.4804 10.9689 20.8286 9.86796 18 9.86796ZM24.2277 25.0072C23.9625 25.7546 22.6929 26.4296 22.0821 26.518C21.0696 26.6706 20.2821 26.5903 18.2652 25.7224C15.075 24.3403 12.9857 21.126 12.825 20.9171C12.6643 20.7081 11.5232 19.1894 11.5232 17.6224C11.5232 16.0555 12.3429 15.284 12.6402 14.9626C12.9295 14.6412 13.275 14.5608 13.492 14.5608C13.7009 14.5608 13.9179 14.5608 14.1027 14.5689C14.2955 14.5769 14.5607 14.4965 14.8179 15.1153C15.083 15.7501 15.7179 17.3171 15.7982 17.4778C15.8786 17.6385 15.9348 17.8233 15.8223 18.0322C15.2116 19.2537 14.5607 19.2055 14.8902 19.768C16.1196 21.8814 17.3491 22.6126 19.2214 23.5528C19.5429 23.7135 19.7277 23.6894 19.9125 23.4724C20.0973 23.2635 20.708 22.5403 20.917 22.2269C21.1259 21.9055 21.3429 21.9617 21.6321 22.0662C21.9214 22.1706 23.4884 22.9421 23.8098 23.1028C24.1312 23.2635 24.3402 23.3439 24.4205 23.4724C24.4929 23.6251 24.4929 24.268 24.2277 25.0072ZM32.1429 2.57153H3.85714C1.72768 2.57153 0 4.29921 0 6.42868V34.7144C0 36.8438 1.72768 38.5715 3.85714 38.5715H32.1429C34.2723 38.5715 36 36.8438 36 34.7144V6.42868C36 4.29921 34.2723 2.57153 32.1429 2.57153ZM17.992 33.2037C15.8545 33.2037 13.7571 32.6653 11.9009 31.6528L5.14286 33.4287L6.95089 26.8233C5.83393 24.8947 5.24732 22.701 5.24732 20.451C5.25536 13.4278 10.9687 7.71439 17.992 7.71439C21.3991 7.71439 24.5973 9.04028 27.008 11.451C29.4107 13.8617 30.8571 17.0599 30.8571 20.4671C30.8571 27.4903 25.0152 33.2037 17.992 33.2037Z" fill="black"/>
</svg>
