<svg width="36" height="42" viewBox="0 0 36 42" fill="none" xmlns="http://www.w3.org/2000/svg">
<g clip-path="url(#clip0_144_117)">
<path d="M18 16.2853C17.1523 16.2856 16.3238 16.5373 15.6191 17.0084C14.9145 17.4796 14.3653 18.1491 14.0412 18.9324C13.717 19.7156 13.6323 20.5774 13.7979 21.4087C13.9635 22.2401 14.3718 23.0037 14.9713 23.6029C15.5708 24.2022 16.3346 24.6103 17.166 24.7755C17.9974 24.9408 18.8591 24.8558 19.6423 24.5314C20.4254 24.2069 21.0947 23.6575 21.5656 22.9527C22.0365 22.2478 22.2879 21.4192 22.2879 20.5715C22.287 19.4347 21.8349 18.3448 21.0309 17.5411C20.2269 16.7374 19.1368 16.2857 18 16.2853ZM28.0213 12.9906C27.8031 12.4377 27.4736 11.9354 27.0533 11.515C26.6329 11.0947 26.1307 10.7652 25.5777 10.547C23.8902 9.88082 19.8723 10.0303 18 10.0303C16.1277 10.0303 12.1138 9.87519 10.4215 10.547C9.86853 10.7652 9.36628 11.0947 8.94592 11.515C8.52556 11.9354 8.19606 12.4377 7.97786 12.9906C7.3125 14.6781 7.46116 18.7 7.46116 20.5707C7.46116 22.4414 7.3125 26.4585 7.98107 28.1516C8.19928 28.7046 8.52878 29.2069 8.94914 29.6272C9.3695 30.0476 9.87175 30.3771 10.4247 30.5953C12.1122 31.2614 16.1301 31.112 18.0032 31.112C19.8763 31.112 23.8886 31.2671 25.5809 30.5953C26.1339 30.3771 26.6361 30.0476 27.0565 29.6272C27.4768 29.2069 27.8063 28.7046 28.0246 28.1516C28.6955 26.4641 28.5412 22.4422 28.5412 20.5715C28.5412 18.7008 28.6955 14.6846 28.0246 12.9914L28.0213 12.9906ZM18 27.1608C16.6968 27.1608 15.4228 26.7744 14.3392 26.0503C13.2556 25.3263 12.411 24.2972 11.9123 23.0931C11.4136 21.8891 11.2831 20.5642 11.5373 19.286C11.7916 18.0078 12.4191 16.8337 13.3407 15.9122C14.2622 14.9907 15.4363 14.3631 16.7145 14.1089C17.9927 13.8546 19.3176 13.9851 20.5216 14.4838C21.7256 14.9826 22.7548 15.8271 23.4788 16.9107C24.2028 17.9943 24.5893 19.2683 24.5893 20.5715C24.5903 21.4371 24.4206 22.2945 24.0899 23.0944C23.7591 23.8943 23.2738 24.6211 22.6617 25.2332C22.0496 25.8453 21.3228 26.3306 20.5229 26.6614C19.7229 26.9922 18.8656 27.1619 18 27.1608ZM24.8609 15.2439C24.5567 15.244 24.2592 15.1539 24.0062 14.985C23.7532 14.8161 23.5559 14.576 23.4394 14.295C23.3228 14.0139 23.2923 13.7047 23.3515 13.4063C23.4108 13.1079 23.5572 12.8337 23.7722 12.6185C23.9873 12.4034 24.2614 12.2568 24.5597 12.1974C24.8581 12.138 25.1674 12.1684 25.4485 12.2848C25.7296 12.4012 25.9698 12.5983 26.1389 12.8512C26.3079 13.1042 26.3981 13.4016 26.3981 13.7058C26.399 13.9078 26.3599 14.1081 26.2832 14.295C26.2065 14.4819 26.0937 14.6518 25.9511 14.795C25.8086 14.9382 25.6392 15.0518 25.4527 15.1294C25.2662 15.207 25.0661 15.247 24.8641 15.2471L24.8609 15.2439ZM32.1429 2.57153H3.85714C2.83416 2.57153 1.85309 2.97791 1.12973 3.70126C0.406376 4.42462 0 5.4057 0 6.42868L0 34.7144C0 35.7374 0.406376 36.7184 1.12973 37.4418C1.85309 38.1652 2.83416 38.5715 3.85714 38.5715H32.1429C33.1658 38.5715 34.1469 38.1652 34.8703 37.4418C35.5936 36.7184 36 35.7374 36 34.7144V6.42868C36 5.4057 35.5936 4.42462 34.8703 3.70126C34.1469 2.97791 33.1658 2.57153 32.1429 2.57153ZM30.7671 25.8751C30.6635 27.9347 30.1934 29.7596 28.6899 31.259C27.1864 32.7585 25.3631 33.2382 23.306 33.3363C21.1838 33.456 14.8211 33.456 12.6988 33.3363C10.6393 33.2326 8.8208 32.7617 7.31491 31.259C5.80902 29.7564 5.33571 27.9306 5.23768 25.8751C5.11795 23.7521 5.11795 17.3886 5.23768 15.268C5.34134 13.2084 5.8058 11.3835 7.31491 9.88403C8.82402 8.38457 10.6473 7.91046 12.6988 7.81243C14.8211 7.69269 21.1838 7.69269 23.306 7.81243C25.3655 7.91609 27.1896 8.38698 28.6899 9.88966C30.1902 11.3923 30.6691 13.2181 30.7671 15.2776C30.8869 17.3926 30.8869 23.7505 30.7671 25.8751Z" fill="black"/>
</g>
<defs>
<clipPath id="clip0_144_117">
<rect width="36" height="41.1429" fill="white"/>
</clipPath>
</defs>
</svg>
