<svg width="56" height="56" viewBox="0 0 56 56" fill="none" xmlns="http://www.w3.org/2000/svg">
<path d="M44.3333 16.3334C44.3333 13.7667 42.2333 11.6667 39.6667 11.6667H35C33.7167 11.6667 32.6667 12.7167 32.6667 14.0001C32.6667 15.2834 33.7167 16.3334 35 16.3334H39.6667V22.5167L31.5467 32.6668H23.3333V23.3334C23.3333 22.0501 22.2833 21.0001 21 21.0001H14C8.84333 21.0001 4.66666 25.1768 4.66666 30.3334V35.0001C4.66666 36.2834 5.71666 37.3334 7 37.3334H9.33333C9.33333 41.2068 12.46 44.3334 16.3333 44.3334C20.2067 44.3334 23.3333 41.2068 23.3333 37.3334H31.5467C32.97 37.3334 34.3 36.6801 35.1867 35.5834L43.3067 25.4334C43.9833 24.5934 44.3333 23.5667 44.3333 22.5167V16.3334ZM16.3333 39.6668C15.05 39.6668 14 38.6168 14 37.3334H18.6667C18.6667 38.6168 17.6167 39.6668 16.3333 39.6668Z" fill="#F8F8F8"/>
<path d="M14 14H21C22.2833 14 23.3333 15.05 23.3333 16.3333C23.3333 17.6167 22.2833 18.6667 21 18.6667H14C12.7167 18.6667 11.6667 17.6167 11.6667 16.3333C11.6667 15.05 12.7167 14 14 14ZM44.3333 30.3333C40.46 30.3333 37.3333 33.46 37.3333 37.3333C37.3333 41.2067 40.46 44.3333 44.3333 44.3333C48.2067 44.3333 51.3333 41.2067 51.3333 37.3333C51.3333 33.46 48.2067 30.3333 44.3333 30.3333ZM44.3333 39.6667C43.05 39.6667 42 38.6167 42 37.3333C42 36.05 43.05 35 44.3333 35C45.6167 35 46.6667 36.05 46.6667 37.3333C46.6667 38.6167 45.6167 39.6667 44.3333 39.6667Z" fill="#F8F8F8"/>
</svg>
