<svg width="32" height="32" viewBox="0 0 32 32" fill="none" xmlns="http://www.w3.org/2000/svg">
<path d="M20.96 2.96004C21.1496 2.7834 21.4003 2.68724 21.6594 2.69181C21.9184 2.69638 22.1656 2.80133 22.3488 2.98454C22.532 3.16776 22.637 3.41494 22.6416 3.67401C22.6461 3.93308 22.55 4.18381 22.3733 4.37337L20.7467 6.00004H23.6667C24.0893 6.00004 24.4667 6.26671 24.608 6.66404L26.2747 11.3307C26.3285 11.4816 26.3453 11.6432 26.3236 11.8019C26.302 11.9606 26.2425 12.1117 26.1503 12.2427C26.058 12.3736 25.9357 12.4805 25.7935 12.5543C25.6513 12.6281 25.4935 12.6666 25.3333 12.6667H23.9413L21.824 26.0667C21.544 28.02 19.8787 29.3334 17.864 29.3334H14.136C12.1227 29.3334 10.456 28.02 10.1787 26.08L8.05867 12.6667H6.66667C6.50649 12.6666 6.34868 12.6281 6.20652 12.5543C6.06435 12.4805 5.94199 12.3736 5.84973 12.2427C5.75748 12.1117 5.69802 11.9606 5.67637 11.8019C5.65473 11.6432 5.67152 11.4816 5.72534 11.3307L7.392 6.66404C7.46129 6.46981 7.58894 6.30175 7.75745 6.18288C7.92597 6.06401 8.12711 6.00015 8.33334 6.00004H17.9173L20.96 2.96004ZM22.9627 8.00004H9.03867L8.08534 10.6667H23.9147L22.9627 8.00004Z" fill="#F8F8F8"/>
</svg>
