<svg width="32" height="38" viewBox="0 0 32 38" fill="none" xmlns="http://www.w3.org/2000/svg">
<path d="M16 19.03C18.9414 19.03 21.3334 16.207 21.3334 12.7357C21.3334 9.2644 18.9414 6.44141 16 6.44141C13.0587 6.44141 10.6667 9.2644 10.6667 12.7357C10.6667 16.207 13.0587 19.03 16 19.03ZM16 9.58855C17.4707 9.58855 18.6667 11 18.6667 12.7357C18.6667 14.4714 17.4707 15.8828 16 15.8828C14.5294 15.8828 13.3334 14.4714 13.3334 12.7357C13.3334 11 14.5294 9.58855 16 9.58855Z" fill="#F8F8F8"/>
<path d="M15.2267 31.326C15.4524 31.5162 15.7227 31.6184 16 31.6184C16.2773 31.6184 16.5477 31.5162 16.7734 31.326C17.1787 30.9877 26.7054 22.8696 26.6667 12.7358C26.6667 5.79477 21.8814 0.147217 16 0.147217C10.1187 0.147217 5.33337 5.79477 5.33337 12.7279C5.2947 22.8696 14.8214 30.9877 15.2267 31.326ZM16 3.29436C20.412 3.29436 24 7.52885 24 12.7437C24.028 19.7272 18.1494 25.9979 16 28.0546C13.852 25.9963 7.97204 19.724 8.00004 12.7358C8.00004 7.52885 11.588 3.29436 16 3.29436Z" fill="#F8F8F8"/>
</svg>
