<svg width="32" height="32" viewBox="0 0 32 32" fill="none" xmlns="http://www.w3.org/2000/svg">
<path d="M21.3333 6.66669C21.3333 6.66669 20 2.66669 16 2.66669C12 2.66669 10.6667 6.66669 10.6667 6.66669C8 6.66669 5.33333 9.33335 5.33333 12C1.73333 12 1.73333 17.3334 5.33333 17.3334H26.6667C30.2667 17.3334 30.2667 12 26.6667 12C26.6667 9.33335 24 6.66669 21.3333 6.66669ZM6.66666 20L9.33333 29.3334H12L10.6667 20H6.66666ZM13.3333 20L14.6667 29.3334H17.3333L18.6667 20H13.3333ZM21.3333 20L20 29.3334H22.6667L25.3333 20H21.3333Z" fill="#F8F8F8"/>
</svg>
