<svg width="22" height="31" viewBox="0 0 22 31" fill="none" xmlns="http://www.w3.org/2000/svg">
<path d="M21.0403 4.90901L18.1116 0.786527C17.7541 0.28284 17.2756 0 16.7696 0C16.2636 0 15.7851 0.278965 15.4276 0.786527L12.2733 5.22285C11.9158 5.72653 11.7151 6.40457 11.7151 7.11749C11.7151 7.83427 11.9131 8.50456 12.2733 9.01212L14.7373 12.4876C14.176 14.3302 13.3695 16.0044 12.3613 17.4198C11.352 18.8495 10.1723 19.977 8.86329 20.7752L6.39928 17.2997C6.04178 16.796 5.56327 16.5132 5.05727 16.5132C4.80769 16.5119 4.56043 16.5808 4.32999 16.7158C4.09955 16.8509 3.89056 17.0494 3.71527 17.2997L0.558253 21.736C0.200751 22.2397 0 22.9178 0 23.6307C0 24.3475 0.198001 25.0177 0.558253 25.5253L3.48427 29.6478C4.09477 30.5079 4.93627 31 5.79978 31C5.97853 31 6.15178 30.9806 6.32778 30.938C9.96879 30.0934 13.5823 27.3618 16.5001 23.2548C19.4151 19.1401 21.3511 14.049 21.9561 8.91526C22.1293 7.45844 21.7828 5.959 21.0403 4.90901ZM20.0063 8.45419C19.4701 13.0222 17.7266 17.5787 15.1003 21.2788C12.4741 24.979 9.24279 27.4354 6.00053 28.191C5.59352 28.2878 5.17552 28.0941 4.87852 27.6795L2.00476 23.6307L5.05177 19.3338L8.34629 23.9833L8.37104 24.0181L8.96504 23.7082C10.7661 22.7752 12.4016 21.3016 13.7583 19.3896C15.1149 17.4775 16.1603 15.1727 16.8218 12.6348L17.0418 11.7979L13.7198 7.12136L16.7668 2.82452L19.6406 6.87339C19.9376 7.29184 20.0751 7.88077 20.0063 8.45419Z" fill="#F8F8F8"/>
</svg>
