<svg width="32" height="32" viewBox="0 0 32 32" fill="none" xmlns="http://www.w3.org/2000/svg">
<path d="M12 14.6534C12.3536 14.6534 12.6927 14.5129 12.9428 14.2628C13.1928 14.0128 13.3333 13.6736 13.3333 13.32C13.3333 12.9664 13.1928 12.6273 12.9428 12.3772C12.6927 12.1272 12.3536 11.9867 12 11.9867C11.6464 11.9867 11.3072 12.1272 11.0572 12.3772C10.8071 12.6273 10.6667 12.9664 10.6667 13.32C10.6667 13.6736 10.8071 14.0128 11.0572 14.2628C11.3072 14.5129 11.6464 14.6534 12 14.6534ZM18.6667 17.3174C18.6667 17.671 18.5262 18.0101 18.2761 18.2602C18.0261 18.5102 17.6869 18.6507 17.3333 18.6507C16.9797 18.6507 16.6406 18.5102 16.3905 18.2602C16.1405 18.0101 16 17.671 16 17.3174C16 16.9637 16.1405 16.6246 16.3905 16.3745C16.6406 16.1245 16.9797 15.984 17.3333 15.984C17.6869 15.984 18.0261 16.1245 18.2761 16.3745C18.5262 16.6246 18.6667 16.9637 18.6667 17.3174ZM12 22.648C12.3536 22.648 12.6927 22.5075 12.9428 22.2575C13.1928 22.0074 13.3333 21.6683 13.3333 21.3147C13.3333 20.9611 13.1928 20.6219 12.9428 20.3719C12.6927 20.1218 12.3536 19.9814 12 19.9814C11.6464 19.9814 11.3072 20.1218 11.0572 20.3719C10.8071 20.6219 10.6667 20.9611 10.6667 21.3147C10.6667 21.6683 10.8071 22.0074 11.0572 22.2575C11.3072 22.5075 11.6464 22.648 12 22.648ZM6.66665 6.21335C6.66665 4.21735 8.30665 2.47335 10.4267 2.68269C17.3298 3.3669 23.7253 6.61554 28.3493 11.7867C29.776 13.3774 29.332 15.7387 27.7107 16.9134C25.6013 18.444 22.4573 20.7227 20.6667 22.024C20.664 22.6067 20.664 22.9854 20.6653 23.48V24.3174C20.6655 24.6584 20.5909 24.9954 20.4468 25.3045C20.3027 25.6137 20.0926 25.8874 19.8312 26.1066C19.5699 26.3257 19.2636 26.4849 18.9341 26.5729C18.6046 26.6609 18.2598 26.6757 17.924 26.616C17.652 27.7174 16.6813 28.652 15.332 28.652C14.3986 28.652 13.6493 28.2054 13.1867 27.5654L11.42 28.8414C9.43598 30.2734 6.65998 28.856 6.66132 26.4067L6.66665 6.21468V6.21335ZM10.2306 4.67335C9.41865 4.59335 8.66532 5.26402 8.66532 6.21335V6.90668C15.6707 7.20135 21.88 10.572 25.9786 15.6987L26.5373 15.2934C27.308 14.7334 27.4067 13.7294 26.86 13.12C22.5694 8.32263 16.6355 5.30904 10.2306 4.67469V4.67335ZM8.66132 26.4067C8.66132 27.2227 9.58665 27.696 10.248 27.2174L13.0853 25.172C13.2348 25.0645 13.4111 25.0003 13.5947 24.9866C13.7784 24.9728 13.9623 25.0101 14.1261 25.0942C14.2899 25.1783 14.4273 25.306 14.5232 25.4633C14.619 25.6205 14.6696 25.8012 14.6693 25.9854C14.6693 26.3454 14.948 26.652 15.332 26.652C15.4199 26.6529 15.5071 26.6363 15.5886 26.6031C15.67 26.57 15.744 26.5209 15.8063 26.4589C15.8686 26.3968 15.9179 26.323 15.9514 26.2417C15.9849 26.1604 16.0019 26.0733 16.0013 25.9854V24.316C16.0013 24.0508 16.1067 23.7964 16.2942 23.6089C16.4817 23.4214 16.7361 23.316 17.0013 23.316C17.2665 23.316 17.5209 23.4214 17.7084 23.6089C17.896 23.7964 18.0013 24.0508 18.0013 24.316C18.0013 24.5027 18.1493 24.6494 18.332 24.6494C18.4204 24.6494 18.5052 24.6142 18.5677 24.5517C18.6302 24.4892 18.6653 24.4044 18.6653 24.316V23.4867C18.664 22.86 18.6627 22.4094 18.672 21.5014C18.6732 21.3452 18.711 21.1915 18.7823 21.0526C18.8536 20.9137 18.9565 20.7934 19.0827 20.7014C20.2853 19.8267 22.4107 18.2854 24.3573 16.8747C22.4563 14.5097 20.0737 12.5763 17.3679 11.203C14.6622 9.82963 11.6952 9.04778 8.66398 8.90935L8.66132 26.4067Z" fill="#F8F8F8"/>
</svg>
