<svg width="32" height="32" viewBox="0 0 32 32" fill="none" xmlns="http://www.w3.org/2000/svg">
<path d="M19.921 14.1405C19.63 13.2745 19.186 12.9645 18.6725 12.9645C18.0465 12.9645 17.3165 13.424 16.63 13.9C16.2215 14.184 14.64 15.9305 13.7775 15.9305C13.6787 15.9332 13.5815 15.9045 13.5 15.8485C12.658 15.2525 13.713 12.6555 13.713 11.41C13.713 10.2045 13.494 9.74402 13.1585 9.74402C12.231 9.74402 10.414 13.2755 9.90751 14.2945C9.76451 14.582 9.56501 14.6955 9.33351 14.6955C8.52401 14.6955 7.32001 13.303 6.76701 13.0895C6.68451 13.056 6.59653 13.0381 6.50751 13.0365C5.58351 13.0365 5.60351 15.335 5.61751 15.945C6.12251 15.807 6.59601 15.722 7.01001 15.722C8.05351 15.722 8.71701 16.2625 8.54401 17.849C8.50501 18.2055 8.27951 19.3415 8.64851 19.592C8.70774 19.6305 8.77739 19.6499 8.84801 19.6475C9.27351 19.6475 9.94751 19.123 10.198 18.963C10.535 18.747 10.8885 18.589 11.1875 18.589C11.5475 18.589 11.8285 18.8175 11.909 19.45C11.957 19.8245 11.7735 21.2495 12.1405 21.477C12.1944 21.5094 12.2562 21.5262 12.319 21.5255C12.9965 21.5255 14.153 19.8325 14.6765 19.6385C14.9223 19.5475 15.1824 19.5013 15.4445 19.502C16.141 19.502 16.8035 19.8095 17.481 20.0695C17.595 20.1135 17.688 20.1325 17.7635 20.1325C18.173 20.1325 18.054 19.564 17.7035 19.2005C17.193 18.6685 16.383 18.902 15.815 18.521C15.0935 18.037 16.098 17.0645 16.488 16.776C16.9535 16.431 17.9855 15.8765 18.809 15.8765C19.1905 15.8765 19.527 15.9955 19.741 16.3085C20.1455 16.9 19.4725 17.647 19.6425 18.311C19.714 18.5865 19.887 18.6815 20.092 18.6815C20.5285 18.6815 21.107 18.2505 21.147 18.2095C21.4131 17.9331 21.6994 17.6769 22.0035 17.443C20.4835 17.1065 20.3545 15.4335 19.921 14.1405Z" fill="#F8F8F8"/>
<path d="M7.45799 12.8945C7.45799 12.8945 8.77249 14.054 9.33399 14.054C9.44149 14.054 9.52199 14.0115 9.55949 13.9085C10.3675 11.696 12.076 9.16751 13.1915 9.16751C13.678 9.16751 14.0515 9.64901 14.1875 10.849C14.3635 12.4025 13.289 14.757 13.8055 15.2935C13.8167 15.3049 13.8303 15.3138 13.8451 15.3196C13.86 15.3255 13.876 15.3282 13.892 15.3275C14.4725 15.3275 16.766 12.3905 18.729 12.3905C18.8801 12.3901 19.0306 12.4088 19.177 12.446C20.9455 12.8995 20.179 15.915 21.6145 16.7765C21.8522 16.9213 22.1247 16.9989 22.403 17.001C22.932 17.001 23.415 16.6995 23.5305 16.076C23.822 14.502 18.823 11.451 21.5275 11.451C21.9155 11.451 22.462 11.5135 23.205 11.6525C23.6475 8.62051 23.493 7.78001 23.097 7.78001C22.6455 7.78001 21.8795 8.87151 21.322 9.05951C21.3059 9.06492 21.289 9.06779 21.272 9.06801C20.9535 9.06801 20.9645 7.92101 20.4195 7.92101C20.0675 7.92101 19.484 8.39951 18.431 9.97251C17.888 10.784 17.4815 11.105 17.1605 11.105C15.9395 11.105 15.974 6.43451 14.509 6.43451C14.213 6.43451 13.856 6.62501 13.415 7.08251C12.738 7.78551 12.106 8.03451 11.5145 8.03451C10.074 8.03451 8.88049 6.55501 7.90199 6.55501C7.51599 6.55501 7.16249 6.78551 6.84149 7.42951C6.17699 8.76501 8.42699 8.69601 7.45799 12.8945ZM9.17949 13.4955C8.91649 13.3775 8.44949 13.0615 8.01149 12.7015C8.09249 12.305 8.14249 11.949 8.17149 11.621C8.29499 11.414 8.44699 11.21 8.63249 11.021C9.38799 10.2505 10.356 10.007 10.8305 10.452C10.154 11.3845 9.55849 12.526 9.17949 13.4955ZM20.285 11.5085C20.038 12.093 20.5185 12.71 21.254 13.5165C21.2027 13.5726 21.143 13.6203 21.077 13.658C21.0069 13.6968 20.9309 13.7237 20.852 13.7375C20.618 12.9475 20.2255 12.189 19.299 11.9515C19.1628 11.9183 19.0239 11.8977 18.884 11.89C18.633 11.074 18.7495 10.3075 19.225 10.0425C19.749 9.74901 20.513 10.168 21.0345 10.981C20.744 11.0365 20.428 11.1705 20.285 11.5085Z" fill="#F8F8F8"/>
<path d="M24.0035 16.087C23.894 16.8025 24.934 16.9305 24.437 18.1025C24.182 18.702 22.0225 20.084 22.1815 20.3865C22.417 20.829 22.7 21.001 22.9865 21.001C23.5535 21.001 24.131 20.328 24.3635 19.745C24.668 18.9825 24.7465 16.981 25.4885 16.61C25.614 16.5465 25.738 16.5185 25.8605 16.5185C26.593 16.5185 27.2775 17.509 27.9375 17.643C28.0985 16.926 27.9835 16.182 28.1475 15.461C25.3615 15.426 29.6955 11.6185 27.219 10.065C27.0855 9.98152 26.9735 9.94402 26.8755 9.94452C26.096 9.94452 26.2775 12.3315 24.308 12.3315C24.151 12.3315 23.9795 12.316 23.793 12.283C23.0725 12.156 22.575 12.097 22.2495 12.097C20.3525 12.098 24.311 14.0935 24.0035 16.087Z" fill="#F8F8F8"/>
<path d="M28.9385 12.3465C29.0095 11.9171 29.0132 11.4791 28.9495 11.0485C28.7705 9.84902 27.833 8.87302 26.86 8.87252C26.5275 8.87252 25.7315 9.01102 25.355 10.1925C25.1018 10.0867 24.8462 9.9867 24.5885 9.89252C24.811 8.39502 24.7275 7.36852 24.328 6.84402C24.2316 6.71279 24.1056 6.60617 23.9603 6.53284C23.8149 6.45951 23.6543 6.42154 23.4915 6.42202C22.9685 6.42202 22.381 6.77202 21.651 7.52052L21.6245 7.44952C21.4695 7.03052 21.2105 6.32952 20.5155 6.32952C20.0405 6.32952 19.4115 6.62252 18.0895 8.54952C17.7061 8.52132 17.3222 8.50082 16.938 8.48802L16.867 8.23002C16.4545 6.71552 15.9865 4.99952 14.668 4.99902H14.6675C14.13 4.99902 13.5645 5.31552 12.938 5.96602C12.4715 6.45102 12.01 6.68652 11.5265 6.68652C10.937 6.68652 10.3335 6.34852 9.7495 6.02202C9.159 5.69202 8.549 5.35052 7.918 5.35052C7.17 5.35052 6.562 5.80902 6.059 6.75252C5.4845 7.83052 5.804 8.54252 6.113 9.23152C6.248 9.53202 6.3895 9.85052 6.49 10.2415C3.1415 11.6795 1 13.857 1 16.2985C1 23.065 7.716 31 16 31C24.2845 31 31 23.065 31 16.2985C31 14.8555 30.241 13.5075 28.9385 12.3465ZM16 29.9805C9.6945 29.9805 4.3925 25.0325 2.629 19.851C5.1085 22.3955 10.163 24.139 16 24.139C21.837 24.139 26.8905 22.3955 29.37 19.8515C27.6065 25.032 22.305 29.9805 16 29.9805ZM21.5675 21.2375C21.447 21.6165 21.0725 22.1925 20.608 22.598C19.891 23.2235 19.017 23.358 18.6005 22.921C18.2505 22.552 18.308 21.8665 18.71 21.225C19.533 19.911 20.713 19.623 21.225 19.883C21.215 19.919 21.201 19.9535 21.194 19.992C21.123 20.3915 21.2515 20.8105 21.5675 21.2375ZM29.2515 14.8135C28.762 14.8135 28.5265 16.1695 28.4915 17.022C28.4605 17.7735 28.2435 18.024 27.933 18.024C27.486 18.024 26.845 17.506 26.2855 17.213C26.1065 17.119 25.969 17.0775 25.861 17.0775C25.5405 17.0775 25.482 17.452 25.372 17.982C25.1865 18.8765 24.9655 19.8045 24.4805 20.576C24.1245 21.1425 23.574 21.5365 23.0225 21.5365C22.66 21.5365 22.297 21.3665 21.988 20.964C20.773 19.385 23.442 19.062 23.974 17.9795C24.282 17.3535 24.1835 17.1355 23.9015 17.1355C23.3465 17.1355 22.081 17.9825 21.82 18.222C21.359 18.6435 20.8295 19.2645 20.1815 19.2645C20.072 19.2645 19.9585 19.2465 19.8415 19.207C19.154 18.975 19.0575 18.11 19.203 17.4675C19.324 16.9305 19.6025 16.448 18.8845 16.4205C18.8592 16.4195 18.8338 16.419 18.8085 16.419C18.346 16.419 17.8735 16.571 17.454 16.761C16.945 16.992 16.241 17.405 16.0565 18.0115C15.999 18.198 17.2335 18.3925 17.4255 18.4665C18.3875 18.8425 18.858 20.653 17.8515 20.653C17.7215 20.653 17.567 20.6225 17.3855 20.5565C16.7545 20.321 16.12 19.988 15.4595 19.988C15.2425 19.988 15.023 20.024 14.8005 20.1115C14.3395 20.2925 14.0875 20.809 13.7245 21.1325C13.1875 21.6145 12.7125 21.8735 12.3395 21.8735C11.8255 21.8735 11.5055 21.3815 11.485 20.301C11.467 19.423 11.2985 19.1385 11.026 19.1385C10.54 19.1385 9.724 20.046 8.8475 20.113C8.822 20.1145 8.7975 20.1155 8.774 20.1155C7.6045 20.1155 8.0595 17.892 8.1505 17.2065C8.25 16.459 7.799 16.1935 7.1045 16.1935C6.324 16.1935 5.2385 16.5285 4.2825 16.892C4.3285 16.933 4.3765 16.969 4.4205 17.014C5.2955 17.887 5.583 19.0385 5.0645 19.584C4.545 20.1285 3.4155 19.862 2.5415 18.988C1.6675 18.114 1.379 16.9625 1.8985 16.4175C2.342 15.949 3.0315 16.1065 3.618 16.419C4.3845 16.1615 5.162 15.937 5.144 15.575C5.0075 12.837 5.784 12.326 6.3835 12.3265C6.61202 12.3322 6.83555 12.3946 7.034 12.508C7.575 9.02352 5.5455 8.78702 6.499 6.99752C6.9505 6.15102 7.422 5.86202 7.919 5.86202C8.9875 5.86202 10.173 7.19752 11.5275 7.19752C12.087 7.19752 12.6755 6.96902 13.296 6.32452C13.8525 5.74652 14.3005 5.51002 14.669 5.51002C16.3175 5.51052 16.3615 10.245 17.304 10.245C17.485 10.245 17.6995 10.0705 17.964 9.65452C19.3465 7.48352 20.082 6.84002 20.516 6.84002C21.149 6.84002 21.1405 8.20902 21.559 8.20902C21.645 8.20902 21.75 8.15052 21.882 8.01002C22.5765 7.27052 23.111 6.93202 23.492 6.93202C24.3905 6.93202 24.435 8.81252 23.703 11.742C23.703 11.742 23.8665 11.7835 24.106 11.7835C24.6165 11.7835 25.47 11.596 25.804 10.424C26.0145 9.68602 26.424 9.38302 26.861 9.38302C27.551 9.38302 28.3085 10.138 28.456 11.1255C28.7245 12.929 27.535 14.2065 27.628 14.7505C27.644 14.847 27.6915 14.885 27.7625 14.885C28.029 14.885 28.6275 14.3425 29.15 14.3425C29.5395 14.3425 29.8875 14.645 30.0215 15.702C29.7155 15.0615 29.4605 14.8135 29.2515 14.8135Z" fill="#F8F8F8"/>
</svg>
